# xmcd
#
# Track frame offsets:
#	150
#	13820
#	27685
#	39676
#	56328
#	70175
#	87775
#	101034
#	114440
#	130419
#	143698
#	158391
#	169716
#	186708
#
# Disc length: 2676 seconds
# Revision: 0
# Processed by: cddbd v1.5.2PL0 Copyright (c) Steve Scherf et al.
# Submitted via: dBpowerAMP V12.0
#
DISCID=bf0a720e
DTITLE=Kikki Danielsson - Första dagen på resten av mitt liv
DYEAR=2011
DGENRE=Pop
TTITLE0=Wagon Wheels
TTITLE1=Låt min starka låga brinna
TTITLE2=Första dagen på resten av mitt liv
TTITLE3=Wine and roses
TTITLE4=Varje sång har ett slut
TTITLE5=Maybe I'll do
TTITLE6=Att få älska och bli älskad igen
TTITLE7=Inga lösa skott
TTITLE8=Jag trodde änglarna fanns
TTITLE9=To know him is to love him
TTITLE10=Backstreets of my heart
TTITLE11=En dans - en kyss
TTITLE12=Ringarna på vattnet
TTITLE13=Let this light shine on forever
EXTD=
EXTT0=
EXTT1=
EXTT2=
EXTT3=
EXTT4=
EXTT5=
EXTT6=
EXTT7=
EXTT8=
EXTT9=
EXTT10=
EXTT11=
EXTT12=
EXTT13=
PLAYORDER=
